<?xml version="1.0" encoding="utf-8"?>
<!-- Generator: Adobe Illustrator 16.0.0, SVG Export Plug-In . SVG Version: 6.00 Build 0)  -->
<!DOCTYPE svg PUBLIC "-//W3C//DTD SVG 1.1//EN" "http://www.w3.org/Graphics/SVG/1.1/DTD/svg11.dtd">
<svg version="1.1" id="Capa_1" xmlns="http://www.w3.org/2000/svg" xmlns:xlink="http://www.w3.org/1999/xlink" x="0px" y="0px"
	 width="612px" height="396px" viewBox="0 0 612 396" enable-background="new 0 0 612 396" xml:space="preserve">
<g id="_x30_4_Webinars">
	<g>
		<g>
			<g>
				<path fill="#476E81" d="M399.987,369.97c0,2.045-1.636,3.718-3.718,3.718H215.73c-2.045,0-3.718-1.673-3.718-3.718
					c0-2.082,1.673-3.718,3.718-3.718h21.824l25.913-37.104v-28.145h85.103v28.145l25.913,37.104h21.786
					C398.352,366.252,399.987,367.888,399.987,369.97z"/>
			</g>
		</g>
		<path fill="#476E81" d="M454.789,69.827h-120.05v7.436h120.05c7.622,0,13.831,6.208,13.831,13.868v146.446H143.381V99.012
			c-3.012-3.569-5.391-7.622-7.027-12.008c-0.26,1.338-0.409,2.714-0.409,4.127v181.134c0,11.749,9.555,21.304,21.303,21.304
			h297.541c11.712,0,21.267-9.555,21.267-21.304V91.13C476.055,79.382,466.5,69.827,454.789,69.827z M392.676,269.279h-6.663
			c-2.055,0-3.718-1.664-3.718-3.717c0-2.054,1.663-3.719,3.718-3.719h6.663c2.055,0,3.717,1.665,3.717,3.719
			C396.393,267.615,394.73,269.279,392.676,269.279z M418.838,269.279h-6.662c-2.055,0-3.718-1.664-3.718-3.717
			c0-2.054,1.663-3.719,3.718-3.719h6.662c2.056,0,3.719,1.665,3.719,3.719C422.557,267.615,420.894,269.279,418.838,269.279z
			 M444.997,269.279h-6.662c-2.055,0-3.718-1.664-3.718-3.717c0-2.054,1.663-3.719,3.718-3.719h6.662
			c2.056,0,3.719,1.665,3.719,3.719C448.716,267.615,447.053,269.279,444.997,269.279z"/>
		<g>
			<path fill="#476E81" d="M408.799,180.805h-53.76c-22.01,0-39.893,17.883-39.893,39.894v9.443h133.583v-9.443
				C448.729,198.688,430.809,180.805,408.799,180.805z M383.221,216.607c-0.373,0.67-0.967,0.781-1.302,0.781
				s-0.93-0.111-1.264-0.781l-14.202-28.367h30.933L383.221,216.607z"/>
			<path fill="#476E81" d="M381.919,171.064c18.144,0,31.267-24.687,31.267-41.343c0-17.213-14.016-31.267-31.267-31.267
				c-17.214,0-31.229,14.054-31.229,31.267C350.688,146.378,363.813,171.064,381.919,171.064z"/>
		</g>
		<g>
			<g>
				<path fill="#476E81" d="M327.304,56.442v73.056c0,1.413-0.781,2.714-2.045,3.346c-0.558,0.26-1.115,0.372-1.673,0.372
					c-0.781,0-1.563-0.261-2.23-0.744l-34.502-25.876H175.28c-18.813,0-34.093-15.281-34.093-34.093V56.442
					c0-18.813,15.28-34.13,34.093-34.13h117.894C311.986,22.312,327.304,37.63,327.304,56.442z"/>
			</g>
		</g>
		<g>
			<path fill="#476E81" d="M272.422,55.005H196.05c-2.055,0-3.718-1.665-3.718-3.718c0-2.054,1.663-3.718,3.718-3.718h76.372
				c2.055,0,3.718,1.665,3.718,3.718C276.14,53.341,274.477,55.005,272.422,55.005z"/>
		</g>
		<g>
			<path fill="#476E81" d="M272.422,81.488H196.05c-2.055,0-3.718-1.665-3.718-3.718c0-2.054,1.663-3.718,3.718-3.718h76.372
				c2.055,0,3.718,1.665,3.718,3.718C276.14,79.823,274.477,81.488,272.422,81.488z"/>
		</g>
	</g>
</g>
<g id="Layer_1">
</g>
</svg>
