<?xml version="1.0" ?><svg xmlns="http://www.w3.org/2000/svg" xmlns:xlink="http://www.w3.org/1999/xlink" version="1.1" viewBox="0 0 512 512" style="enable-background:new 0 0 512 512;" xml:space="preserve"><g id="_x30_4_Webinars"><g><g><g><path d="M377.519,478.345c0,2.644-2.115,4.807-4.807,4.807H139.288c-2.644,0-4.807-2.163-4.807-4.807      c0-2.692,2.163-4.807,4.807-4.807h28.217l33.504-47.973v-36.389h110.031v36.389l33.504,47.973h28.169      C375.404,473.538,377.519,475.653,377.519,478.345z"/></g></g><path d="M448.374,90.281H293.158v9.614h155.216c9.854,0,17.882,8.027,17.882,17.93V307.17H45.745V128.015    c-3.894-4.614-6.97-9.854-9.085-15.526c-0.337,1.73-0.529,3.509-0.529,5.336v234.194c0,15.19,12.354,27.544,27.544,27.544h384.699    c15.142,0,27.496-12.354,27.496-27.544V117.825C475.869,102.635,463.515,90.281,448.374,90.281z M368.065,348.16h-8.614    c-2.657,0-4.807-2.152-4.807-4.807c0-2.655,2.15-4.807,4.807-4.807h8.614c2.657,0,4.807,2.152,4.807,4.807    C372.872,346.008,370.722,348.16,368.065,348.16z M401.892,348.16h-8.614c-2.657,0-4.807-2.152-4.807-4.807    c0-2.655,2.15-4.807,4.807-4.807h8.614c2.657,0,4.807,2.152,4.807,4.807C406.699,346.008,404.549,348.16,401.892,348.16z     M435.714,348.16H427.1c-2.657,0-4.807-2.152-4.807-4.807c0-2.655,2.15-4.807,4.807-4.807h8.614c2.657,0,4.807,2.152,4.807,4.807    C440.521,346.008,438.371,348.16,435.714,348.16z"/><g><path d="M388.912,233.768h-69.508c-28.457,0-51.578,23.121-51.578,51.579v12.21h172.713v-12.21     C440.538,256.889,417.369,233.768,388.912,233.768z M355.84,280.059c-0.481,0.865-1.25,1.01-1.682,1.01     c-0.433,0-1.202-0.144-1.634-1.01l-18.363-36.677h39.994L355.84,280.059z"/><path d="M354.158,221.174c23.458,0,40.426-31.918,40.426-53.453c0-22.256-18.122-40.426-40.426-40.426     c-22.256,0-40.378,18.17-40.378,40.426C313.779,189.256,330.748,221.174,354.158,221.174z"/></g><g><g><path d="M283.544,72.976v94.456c0,1.827-1.01,3.509-2.644,4.326c-0.721,0.337-1.442,0.481-2.163,0.481      c-1.01,0-2.019-0.337-2.884-0.961l-44.608-33.456H86.988c-24.323,0-44.08-19.757-44.08-44.08V72.976      c0-24.323,19.756-44.128,44.08-44.128h152.428C263.739,28.848,283.544,48.653,283.544,72.976z"/></g></g><g><path d="M212.586,71.118h-98.744c-2.657,0-4.807-2.152-4.807-4.807c0-2.655,2.15-4.807,4.807-4.807h98.744     c2.657,0,4.807,2.152,4.807,4.807C217.393,68.966,215.243,71.118,212.586,71.118z"/></g><g><path d="M212.586,105.358h-98.744c-2.657,0-4.807-2.152-4.807-4.807s2.15-4.807,4.807-4.807h98.744     c2.657,0,4.807,2.152,4.807,4.807S215.243,105.358,212.586,105.358z"/></g></g></g><g id="Layer_1"/></svg>